<svg xmlns="http://www.w3.org/2000/svg" viewBox="-37 4953.078 50 50">
  <defs>
    <style>
      .cls-1 {
        fill: #e6e6e6;
      }
    </style>
  </defs>
  <path id="Union_2" data-name="Union 2" class="cls-1" d="M1930.424-5279.038a.592.592,0,0,1-.467-.891l12.029-21.032a.594.594,0,0,1,1.036,0l7.315,12.368a.626.626,0,0,1-.041.648,22.678,22.678,0,0,1-18.036,8.975Q1931.363-5278.969,1930.424-5279.038Zm-3.515-.364a24.122,24.122,0,0,1-17.738-12.631.6.6,0,0,1,.528-.891h24.159a.6.6,0,0,1,.528.891l-6.868,12.308a.634.634,0,0,1-.557.326Zm24.382-11.5-12.212-21.051a.6.6,0,0,1,.508-.911h14.345a.611.611,0,0,1,.569.384,24.845,24.845,0,0,1-2.174,21.6.587.587,0,0,1-.5.279A.631.631,0,0,1,1951.291-5290.9Zm-43.279-4.21a.612.612,0,0,1-.548-.4,25.642,25.642,0,0,1,2.174-21.578.609.609,0,0,1,1.036,0l12.374,21.072a.6.6,0,0,1-.508.911Zm11.094-11.8-7.315-12.449a.579.579,0,0,1,.02-.648c1.24-1.68,7.5-9.331,19.912-8.947a.614.614,0,0,1,.508.911l-12.09,21.133a.585.585,0,0,1-.518.3A.585.585,0,0,1,1919.106-5306.911Zm8.595-9.008,6.928-12.429a.588.588,0,0,1,.61-.3c2.195.324,12.536,2.611,17.718,12.711a.6.6,0,0,1-.528.871l-24.22.021h-.027A.576.576,0,0,1,1927.7-5315.919Z" transform="translate(-1943.026 10282.046)"/>
</svg>
