<?xml version="1.0" encoding="utf-8"?>
<!-- Generator: Adobe Illustrator 21.1.0, SVG Export Plug-In . SVG Version: 6.00 Build 0)  -->
<svg version="1.1" id="Слой_1" xmlns="http://www.w3.org/2000/svg" xmlns:xlink="http://www.w3.org/1999/xlink" x="0px" y="0px"
	 viewBox="0 0 100 350" style="enable-background:new 0 0 100 350;" xml:space="preserve">
<style type="text/css">
	.st0{fill:none;stroke:#F5F5F5;stroke-width:3;stroke-miterlimit:10;}
	.st1{fill:#FFFFFF;stroke:#F5F5F5;stroke-miterlimit:10;}
	.st2{fill:#F5F5F5;}
</style>
<path class="st0" d="M51,138.7L51,138.7c-19.3,0-35-15.7-35-35V38.5c0-19.3,15.7-35,35-35h0c19.3,0,35,15.7,35,35v65.2
	C86,123,70.3,138.7,51,138.7z"/>
<path class="st1" d="M51,49.1L51,49.1c-2.8,0-5-2.2-5-5V26.4c0-2.8,2.2-5,5-5h0c2.8,0,5,2.2,5,5v17.8C56,46.9,53.8,49.1,51,49.1z"/>
<path class="st2" d="M80.4,289c-1.2-0.7-2.7-0.4-3.5,0.7l-23.5,36.5v-15.8l24.7-42.8c0.7-1.2,0.3-2.7-0.9-3.4
	c-1.2-0.7-2.7-0.3-3.4,0.9l-20.4,35.3v-95L70,176.8c0.7-1.2,0.3-2.7-0.9-3.4c-1.2-0.7-2.7-0.3-3.4,0.9l-12.2,21.1V158
	c0-1.4-1.1-2.5-2.5-2.5s-2.5,1.1-2.5,2.5v37.4l-11.6-20.1c-0.7-1.2-2.2-1.6-3.4-0.9s-1.6,2.2-0.9,3.4l16,27.6V301l-19.9-34.5
	c-0.7-1.2-2.2-1.6-3.4-0.9s-1.6,2.2-0.9,3.4l24.2,42v15.1l-22-34.2c-0.7-1.2-2.3-1.5-3.5-0.7c-1.2,0.7-1.5,2.3-0.7,3.5l26.3,40.8
	c0.1,0.1,0.1,0.2,0.2,0.3c0.4,0.9,1.3,1.5,2.3,1.5c0.9,0,1.7-0.5,2.1-1.2c0.2-0.2,0.3-0.3,0.5-0.5l27.6-42.9
	C81.9,291.3,81.5,289.8,80.4,289z"/>
</svg>
