<?xml version="1.0" encoding="utf-8"?>
<!-- Generator: Adobe Illustrator 21.1.0, SVG Export Plug-In . SVG Version: 6.00 Build 0)  -->
<svg version="1.1" id="Capa_1" xmlns="http://www.w3.org/2000/svg" xmlns:xlink="http://www.w3.org/1999/xlink" x="0px" y="0px"
	 viewBox="0 0 36.5 36.5" style="enable-background:new 0 0 36.5 36.5;" xml:space="preserve">
<style type="text/css">
	.st0{fill:#36425E;}
</style>
<g>
	<path class="st0" d="M32.3,17.7c0,0-19.3,0-24.6,0l0.8-0.6c6.1-3.5,19.6-12,19.6-12c0.6-0.3,0.8-1,0.4-1.6l-1.2-2.9
		c-0.3-0.6-1-0.8-1.6-0.4L3.6,13.7c-0.6,0.3-0.8,1-0.4,1.6l2.1,2.3l0,17.7c0,0.7,0.5,1.2,1.2,1.2h25.8c0.6,0,1.2-0.5,1.2-1.2V18.8
		C33.5,18.2,33,17.7,32.3,17.7z M23.8,18.5L20.2,22h-4.7l3.5-3.5H23.8z M22.3,3.4l4.2-2.7l-0.6,3.9l-4.3,2.7L22.3,3.4z M14.8,7.9
		l4.2-2.6l-0.8,4l-4.2,2.6L14.8,7.9z M6.4,16.7l0.7-4l4.2-2.7l-0.7,4L6.4,16.7z M10.8,18.5h4.7L11.9,22H7.2L10.8,18.5z M31.5,35H7.3
		V23.9h24.2C31.5,23.9,31.5,35,31.5,35z M28.5,22h-4.8l3.5-3.5h4.7L28.5,22z"/>
</g>
</svg>
