<svg version="1.1" id="Слой_1" xmlns="http://www.w3.org/2000/svg" x="0px" y="0px"
	 viewBox="0 0 250 250" style="enable-background:new 0 0 250 250;" xml:space="preserve">
<style type="text/css">
	.st0{fill:#D93A5B;}
	.st1{fill:#36425E;}
</style>
<g>
	<path class="st0" d="M108.7,65.2l34.7-62.1c0.6-1.1,1.8-1.7,3-1.5c11,1.6,62.6,13,88.6,63.6c1,2-0.4,4.4-2.7,4.4l-121,0.1
		C109,69.8,107.5,67.3,108.7,65.2z"/>
	<path class="st1" d="M168,80.6h71.6c1.2,0,2.3,0.8,2.8,1.9c3.9,10.1,19.9,58.6-10.8,108c-1.2,1.9-4,1.9-5.1-0.1L165.4,85.1
		C164.3,83.1,165.7,80.6,168,80.6z"/>
	<path class="st1" d="M221.5,205.1c-6.4,8.7-39.2,49-99.3,44.5c-2.2-0.2-3.5-2.6-2.4-4.5l60.1-105.2c1.1-2,4-2,5.2,0l36.5,61.9
		C222.3,202.8,222.2,204.1,221.5,205.1z"/>
	<path class="st1" d="M104.7,247.8c-10.5-1.3-59.9-10.2-88.6-63.1c-1.1-2,0.4-4.4,2.6-4.4h120.6c2.3,0,3.7,2.5,2.6,4.5l-34.2,61.5
		C107.1,247.4,105.9,248,104.7,247.8z"/>
	<path class="st1" d="M7.5,167.3c-3.8-10.1-18.9-58,10.8-107.9c1.2-2,4-1.9,5.2,0l61.8,105.3c1.2,2-0.3,4.5-2.6,4.5H10.3
		C9.1,169.2,8,168.5,7.5,167.3z"/>
	<path class="st1" d="M29.3,44.8c6.1-8.4,37.5-46.6,99.5-44.7c2.3,0.1,3.6,2.5,2.5,4.5L70.9,110.3c-1.1,2-4,2-5.2,0L29.1,48
		C28.5,47.1,28.6,45.8,29.3,44.8z"/>
</g>
</svg>
