<?xml version="1.0" encoding="utf-8"?>
<!-- Generator: Adobe Illustrator 21.1.0, SVG Export Plug-In . SVG Version: 6.00 Build 0)  -->
<svg version="1.1" id="Capa_1" xmlns="http://www.w3.org/2000/svg" xmlns:xlink="http://www.w3.org/1999/xlink" x="0px" y="0px"
	 viewBox="0 0 97.8 97.8" style="enable-background:new 0 0 97.8 97.8;" xml:space="preserve">
<style type="text/css">
	.st0{fill:#36425E;}
</style>
<g>
	<g>
		<path class="st0" d="M40,59.6c7.3-3.8,14.6-7.6,21.9-11.4c-7.4-3.8-14.6-7.6-21.9-11.4C40,44.4,40,52,40,59.6z"/>
		<path class="st0" d="M48.9,0C21.9,0,0,21.9,0,48.9s21.9,48.9,48.9,48.9s48.9-21.9,48.9-48.9S75.9,0,48.9,0z M82.2,65.2
			c-0.8,3.7-3.8,6.4-7.5,6.8c-8.6,1-17.2,1-25.8,1c-8.6,0-17.3,0-25.8-1c-3.6-0.4-6.6-3.1-7.5-6.8c-1.2-5.2-1.2-10.9-1.2-16.3
			s0-11.1,1.2-16.3c0.8-3.7,3.8-6.4,7.5-6.8c8.6-1,17.2-1,25.8-1c8.6,0,17.3,0,25.8,1c3.6,0.4,6.6,3.1,7.5,6.8
			c1.2,5.2,1.2,10.9,1.2,16.3S83.4,60,82.2,65.2z"/>
	</g>
</g>
</svg>
